<?xml version="1.0" encoding="utf-8"?>
<!-- Generator: Adobe Illustrator 25.3.1, SVG Export Plug-In . SVG Version: 6.00 Build 0)  -->
<svg version="1.1" id="Capa_5" xmlns="http://www.w3.org/2000/svg" xmlns:xlink="http://www.w3.org/1999/xlink" x="0px" y="0px"
	 viewBox="0 0 300 300" style="enable-background:new 0 0 300 300;" xml:space="preserve">
<style type="text/css">
	.st0{fill:none;stroke:#FFFFFF;stroke-miterlimit:10;}
</style>
<g>
	<g id="Capa_4">
		<path class="st0" d="M227.4,247.6c-0.2-2.4-0.5-4.9-0.7-7.3c-0.2-1.6,0.2-5.1-0.9-6.4c-0.3-0.3-0.7-0.5-1.1-0.6
			c-1.3-0.4-2.6-0.8-3.9-1.3c-0.9-0.3-1.8-0.6-2.2-1.5c-0.2-0.4-0.2-0.9-0.2-1.4c0-4.4-1.2-10.7,0.1-14.9c1.2-3.8,5.5-6,7.4-9.5
			c3.3-6,3.9-12.2,3.6-18.9c4.4-0.1,7-0.6,9.6-4.7c3.3-5.2,4.3-11.4,5.4-17.4c1.3-6.9,2.3-13.9,2.9-21c0.3-3.5,0.6-7.2-0.7-10.5
			c-0.9-2.3-2.6-4.2-4.6-5.6c-1.6-1.1-5.4-1.1-6.5-2.3c-0.9-0.9-0.2-4.5-0.1-5.7c0.1-4.3,0-8.6-0.2-12.9
			c-0.6-12.6-3.2-24.6-9.8-35.4c-5-8.2-11.3-16-19.2-21.6c-11.7-8.2-25.9-13.5-40.3-14.3c-17-0.9-35.9,6.5-49.8,16
			c-6.5,4.5-11.1,11-14.6,18c-3.9,7.8-7.5,16.4-9.3,25c-2.1,10.1-1.1,20.5,0,30.8c-2-2-8,1.7-9.7,3.1c-1.5,1.2-2.5,3.1-3,5
			c-1.5,4.7-0.4,9.3,0.1,14c0.6,5.6,1.3,11.3,2,16.9c0.5,4.3,1.4,8.5,3.4,12.4c1.4,2.6,4.6,8.9,8,8.8c1.8-0.1,3.6-0.1,5.4-0.2
			c-0.4,0.5-0.4,1.3-0.3,1.9c0.7,4.6,1.7,9.1,3,13.5c1.1,3.8,1.9,8.3,5.1,11c0.9,0.8,2,1.3,3,2.1c3,2.7-0.6,7.2-1.1,10.4
			c-0.4,2.4,0.5,5.5,0,7.7c-0.9,3.5-5.5,0.6-6.2,4.1c-0.9,4.7-1.8,9.3-2.7,14"/>
	</g>
	<g id="Capa_3">
		<ellipse class="st0" cx="163.6" cy="147.6" rx="99.5" ry="136.9"/>
	</g>
</g>
</svg>
